<?xml version="1.0" encoding="UTF-8"?>
<svg width="50px" height="100px" version="1.1" viewBox="185 25 250 500" xmlns="http://www.w3.org/2000/svg" xmlns:xlink="http://www.w3.org/1999/xlink">
 <defs>
  <symbol id="t" overflow="visible">
   <path d="m3.6562-0.21875c-0.1875 0.09375-0.38672 0.16797-0.59375 0.21875-0.19922 0.050781-0.40625 0.078125-0.625 0.078125-0.66797 0-1.1992-0.17969-1.5938-0.54688-0.38672-0.375-0.57812-0.87891-0.57812-1.5156 0-0.64453 0.19141-1.1484 0.57812-1.5156 0.39453-0.375 0.92578-0.5625 1.5938-0.5625 0.21875 0 0.42578 0.027344 0.625 0.078125 0.20703 0.054687 0.40625 0.125 0.59375 0.21875v0.82812c-0.1875-0.125-0.375-0.21875-0.5625-0.28125-0.17969-0.0625-0.37109-0.09375-0.57812-0.09375-0.36719 0-0.65625 0.12109-0.875 0.35938-0.21094 0.23047-0.3125 0.55469-0.3125 0.96875 0 0.40625 0.10156 0.73047 0.3125 0.96875 0.21875 0.23047 0.50781 0.34375 0.875 0.34375 0.20703 0 0.39844-0.023437 0.57812-0.078125 0.1875-0.0625 0.375-0.16016 0.5625-0.29688z"/>
  </symbol>
  <symbol id="c" overflow="visible">
   <path d="m2.6875-2.1719c-0.085938-0.039063-0.16797-0.070313-0.25-0.09375-0.085938-0.019531-0.16797-0.03125-0.25-0.03125-0.25 0-0.44531 0.085937-0.57812 0.25-0.125 0.15625-0.1875 0.38281-0.1875 0.67188v1.375h-0.96875v-2.9844h0.96875v0.48438c0.11328-0.19531 0.25-0.33594 0.40625-0.42188 0.16406-0.09375 0.35938-0.14062 0.57812-0.14062h0.10938c0.039063 0 0.09375 0.007812 0.15625 0.015625z"/>
  </symbol>
  <symbol id="b" overflow="visible">
   <path d="m3.4375-1.5v0.26562h-2.2344c0.03125 0.23047 0.11328 0.40234 0.25 0.51562 0.13281 0.10547 0.32812 0.15625 0.57812 0.15625 0.20703 0 0.41406-0.023438 0.625-0.078125 0.20703-0.0625 0.42188-0.15625 0.64062-0.28125v0.73438c-0.21875 0.09375-0.44531 0.16406-0.67188 0.20312-0.23047 0.039062-0.45312 0.0625-0.67188 0.0625-0.54297 0-0.96484-0.13281-1.2656-0.40625-0.30469-0.28125-0.45312-0.67188-0.45312-1.1719 0-0.47656 0.14453-0.85938 0.4375-1.1406 0.30078-0.28125 0.70703-0.42188 1.2188-0.42188 0.46875 0 0.84375 0.14062 1.125 0.42188s0.42188 0.66406 0.42188 1.1406zm-0.96875-0.32812c0-0.17578-0.058594-0.31641-0.17188-0.42188-0.10547-0.11328-0.24219-0.17188-0.40625-0.17188-0.1875 0-0.33984 0.054687-0.45312 0.15625-0.11719 0.10547-0.1875 0.25-0.21875 0.4375z"/>
  </symbol>
  <symbol id="d" overflow="visible">
   <path d="m1.7969-1.3438c-0.19922 0-0.35156 0.039062-0.45312 0.10938-0.09375 0.0625-0.14062 0.16406-0.14062 0.29688 0 0.11719 0.035156 0.21094 0.10938 0.28125 0.082031 0.0625 0.19531 0.09375 0.34375 0.09375 0.17578 0 0.32812-0.0625 0.45312-0.1875s0.1875-0.28516 0.1875-0.48438v-0.10938zm1.4688-0.35938v1.7031h-0.96875v-0.4375c-0.125 0.17969-0.27344 0.30859-0.4375 0.39062-0.15625 0.082031-0.35156 0.125-0.57812 0.125-0.3125 0-0.57031-0.085938-0.76562-0.26562-0.1875-0.1875-0.28125-0.42188-0.28125-0.70312 0-0.35156 0.11719-0.61328 0.35938-0.78125 0.23828-0.16406 0.61719-0.25 1.1406-0.25h0.5625v-0.0625c0-0.15625-0.0625-0.26562-0.1875-0.32812-0.11719-0.070312-0.29688-0.10938-0.54688-0.10938-0.21094 0-0.40234 0.023437-0.57812 0.0625-0.17969 0.042969-0.33984 0.10156-0.48438 0.17188v-0.71875c0.19531-0.050781 0.39844-0.085938 0.60938-0.10938 0.20703-0.03125 0.41406-0.046875 0.625-0.046875 0.53906 0 0.92969 0.10938 1.1719 0.32812 0.23828 0.21094 0.35938 0.55469 0.35938 1.0312z"/>
  </symbol>
  <symbol id="a" overflow="visible">
   <path d="m1.5-3.8438v0.85938h0.98438v0.67188h-0.98438v1.2812c0 0.13672 0.023438 0.23047 0.078125 0.28125 0.0625 0.042969 0.17578 0.0625 0.34375 0.0625h0.48438v0.6875h-0.8125c-0.38672 0-0.65625-0.078125-0.8125-0.23438s-0.23438-0.42188-0.23438-0.79688v-1.2812h-0.46875v-0.67188h0.46875v-0.85938z"/>
  </symbol>
  <symbol id="i" overflow="visible">
   <path d="m2.5-2.5469v-1.6094h0.95312v4.1562h-0.95312v-0.4375c-0.13672 0.17969-0.28125 0.30859-0.4375 0.39062-0.15625 0.082031-0.33984 0.125-0.54688 0.125-0.375 0-0.68359-0.14453-0.92188-0.4375-0.23047-0.28906-0.34375-0.67188-0.34375-1.1406 0-0.45703 0.11328-0.83203 0.34375-1.125 0.23828-0.28906 0.54688-0.4375 0.92188-0.4375 0.19531 0 0.375 0.042969 0.53125 0.125 0.16406 0.085938 0.31641 0.21484 0.45312 0.39062zm-0.64062 1.9375c0.20703 0 0.36328-0.070313 0.46875-0.21875 0.11328-0.15625 0.17188-0.37891 0.17188-0.67188 0-0.28125-0.058594-0.49219-0.17188-0.64062-0.10547-0.15625-0.26172-0.23438-0.46875-0.23438-0.19922 0-0.35547 0.078125-0.46875 0.23438-0.10547 0.14844-0.15625 0.35938-0.15625 0.64062 0 0.29297 0.050781 0.51562 0.15625 0.67188 0.11328 0.14844 0.26953 0.21875 0.46875 0.21875z"/>
  </symbol>
  <symbol id="h" overflow="visible">
   <path d="m2.0469-0.60938c0.20703 0 0.36328-0.070313 0.46875-0.21875 0.11328-0.15625 0.17188-0.37891 0.17188-0.67188 0-0.28125-0.058594-0.49219-0.17188-0.64062-0.10547-0.15625-0.26172-0.23438-0.46875-0.23438-0.19922 0-0.35547 0.078125-0.46875 0.23438-0.10547 0.14844-0.15625 0.35938-0.15625 0.64062 0 0.29297 0.050781 0.51562 0.15625 0.67188 0.11328 0.14844 0.26953 0.21875 0.46875 0.21875zm-0.625-1.9375c0.125-0.17578 0.26562-0.30469 0.42188-0.39062 0.16406-0.082031 0.35156-0.125 0.5625-0.125 0.36328 0 0.66406 0.14844 0.90625 0.4375 0.23828 0.29297 0.35938 0.66797 0.35938 1.125 0 0.46875-0.12109 0.85156-0.35938 1.1406-0.24219 0.29297-0.54297 0.4375-0.90625 0.4375-0.21094 0-0.39844-0.042969-0.5625-0.125-0.15625-0.082031-0.29688-0.21094-0.42188-0.39062v0.4375h-0.96875v-4.1562h0.96875z"/>
  </symbol>
  <symbol id="g" overflow="visible">
   <path d="m0.0625-2.9844h0.95312l0.8125 2.0156 0.6875-2.0156h0.95312l-1.2656 3.2656c-0.125 0.33203-0.27344 0.56641-0.4375 0.70312-0.16797 0.13281-0.39062 0.20312-0.67188 0.20312h-0.54688v-0.64062h0.29688c0.16406 0 0.28516-0.027344 0.35938-0.078125 0.070313-0.054688 0.12891-0.14062 0.17188-0.26562l0.03125-0.09375z"/>
  </symbol>
  <symbol id="f" overflow="visible">
   <path d="m0.5-3.9844h2.7812v0.78125h-1.75v0.73438h1.6406v0.78125h-1.6406v1.6875h-1.0312z"/>
  </symbol>
  <symbol id="s" overflow="visible">
   <path d="m0.45312-4.1562h0.96875v4.1562h-0.96875z"/>
  </symbol>
  <symbol id="r" overflow="visible">
   <path d="m2.4219-4.1562v0.625h-0.51562c-0.13672 0-0.23438 0.027344-0.29688 0.078125-0.054687 0.054687-0.078125 0.13672-0.078125 0.25v0.21875h0.82812v0.67188h-0.82812v2.3125h-0.95312v-2.3125h-0.46875v-0.67188h0.46875v-0.21875c0-0.32031 0.085937-0.5625 0.26562-0.71875 0.1875-0.15625 0.47266-0.23438 0.85938-0.23438z"/>
  </symbol>
  <symbol id="e" overflow="visible">
   <path d="m1.875-2.375c-0.21094 0-0.37109 0.078125-0.48438 0.23438-0.10547 0.14844-0.15625 0.35938-0.15625 0.64062 0 0.29297 0.050781 0.51562 0.15625 0.67188 0.11328 0.14844 0.27344 0.21875 0.48438 0.21875 0.20703 0 0.36719-0.070313 0.48438-0.21875 0.11328-0.15625 0.17188-0.37891 0.17188-0.67188 0-0.28125-0.058594-0.49219-0.17188-0.64062-0.11719-0.15625-0.27734-0.23438-0.48438-0.23438zm0-0.6875c0.51953 0 0.92188 0.14062 1.2031 0.42188 0.28906 0.27344 0.4375 0.65234 0.4375 1.1406 0 0.5-0.14844 0.89062-0.4375 1.1719-0.28125 0.27344-0.68359 0.40625-1.2031 0.40625-0.51172 0-0.91406-0.13281-1.2031-0.40625-0.29297-0.28125-0.4375-0.67188-0.4375-1.1719 0-0.48828 0.14453-0.86719 0.4375-1.1406 0.28906-0.28125 0.69141-0.42188 1.2031-0.42188z"/>
  </symbol>
  <symbol id="q" overflow="visible">
   <path d="m3.2344-2.5c0.11328-0.17578 0.25391-0.3125 0.42188-0.40625 0.16406-0.10156 0.35156-0.15625 0.5625-0.15625 0.33203 0 0.58594 0.10938 0.76562 0.32812 0.1875 0.21094 0.28125 0.51172 0.28125 0.90625v1.8281h-0.96875v-1.5625c0.007813-0.019531 0.015625-0.039062 0.015625-0.0625v-0.10938c0-0.21875-0.03125-0.375-0.09375-0.46875s-0.16406-0.14062-0.29688-0.14062c-0.1875 0-0.33594 0.078125-0.4375 0.23438-0.09375 0.14844-0.14062 0.35938-0.14062 0.64062v1.4688h-0.96875v-1.5625c0-0.33203-0.03125-0.54688-0.09375-0.64062-0.054688-0.09375-0.15234-0.14062-0.29688-0.14062-0.17969 0-0.32031 0.078125-0.42188 0.23438-0.09375 0.14844-0.14062 0.35938-0.14062 0.64062v1.4688h-0.96875v-2.9844h0.96875v0.4375c0.11328-0.17578 0.24219-0.30469 0.39062-0.39062 0.15625-0.082031 0.32812-0.125 0.51562-0.125 0.20703 0 0.39062 0.054688 0.54688 0.15625 0.15625 0.09375 0.27344 0.23047 0.35938 0.40625z"/>
  </symbol>
  <symbol id="p" overflow="visible">
   <path d="m3.4688-1.8281v1.8281h-0.96875v-1.3906c0-0.25781-0.007812-0.4375-0.015625-0.53125-0.011719-0.10156-0.03125-0.17578-0.0625-0.21875-0.03125-0.0625-0.085937-0.10938-0.15625-0.14062-0.0625-0.039062-0.13281-0.0625-0.20312-0.0625-0.21094 0-0.37109 0.078125-0.48438 0.23438-0.10547 0.15625-0.15625 0.37109-0.15625 0.64062v1.4688h-0.96875v-4.1562h0.96875v1.6094c0.13281-0.17578 0.28516-0.30469 0.45312-0.39062 0.16406-0.082031 0.34375-0.125 0.53125-0.125 0.34375 0 0.60156 0.10938 0.78125 0.32812 0.1875 0.21094 0.28125 0.51172 0.28125 0.90625z"/>
  </symbol>
  <symbol id="o" overflow="visible">
   <path d="m0.5-3.9844h1.1562l1.4375 2.7344v-2.7344h0.98438v3.9844h-1.1562l-1.4375-2.7344v2.7344h-0.98438z"/>
  </symbol>
  <symbol id="n" overflow="visible">
   <path d="m0.42188-1.1719v-1.8125h0.96875v0.29688 0.60938 0.48438c0 0.24219 0.003906 0.41797 0.015625 0.53125 0.007812 0.10547 0.03125 0.17969 0.0625 0.21875 0.039062 0.0625 0.09375 0.11719 0.15625 0.15625 0.0625 0.03125 0.13281 0.046875 0.21875 0.046875 0.19531 0 0.35156-0.078125 0.46875-0.23438 0.11328-0.15625 0.17188-0.36719 0.17188-0.64062v-1.4688h0.95312v2.9844h-0.95312v-0.4375c-0.14844 0.17969-0.30469 0.30859-0.46875 0.39062-0.15625 0.082031-0.33594 0.125-0.53125 0.125-0.34375 0-0.60938-0.10156-0.79688-0.3125-0.17969-0.21875-0.26562-0.53125-0.26562-0.9375z"/>
  </symbol>
  <symbol id="m" overflow="visible">
   <path d="m3.4688-1.8281v1.8281h-0.96875v-1.3906c0-0.25781-0.007812-0.4375-0.015625-0.53125-0.011719-0.10156-0.03125-0.17578-0.0625-0.21875-0.03125-0.0625-0.085937-0.10938-0.15625-0.14062-0.0625-0.039062-0.13281-0.0625-0.20312-0.0625-0.21094 0-0.37109 0.078125-0.48438 0.23438-0.10547 0.15625-0.15625 0.37109-0.15625 0.64062v1.4688h-0.96875v-2.9844h0.96875v0.4375c0.13281-0.17578 0.28516-0.30469 0.45312-0.39062 0.16406-0.082031 0.34375-0.125 0.53125-0.125 0.34375 0 0.60156 0.10938 0.78125 0.32812 0.1875 0.21094 0.28125 0.51172 0.28125 0.90625z"/>
  </symbol>
  <symbol id="l" overflow="visible">
   <path d="m0.5-3.9844h1.7031c0.50781 0 0.89844 0.11719 1.1719 0.34375 0.26953 0.21875 0.40625 0.53906 0.40625 0.95312 0 0.41797-0.13672 0.74219-0.40625 0.96875-0.27344 0.21875-0.66406 0.32812-1.1719 0.32812h-0.67188v1.3906h-1.0312zm1.0312 0.75v1.1094h0.5625c0.19531 0 0.34766-0.046875 0.45312-0.14062 0.11328-0.10156 0.17188-0.24219 0.17188-0.42188 0-0.17578-0.058594-0.3125-0.17188-0.40625-0.10547-0.09375-0.25781-0.14062-0.45312-0.14062z"/>
  </symbol>
  <symbol id="k" overflow="visible">
   <path d="m0.45312-2.9844h0.96875v2.9375c0 0.39453-0.10156 0.69531-0.29688 0.90625-0.1875 0.21875-0.46484 0.32812-0.82812 0.32812h-0.48438v-0.64062h0.17188c0.17578 0 0.29688-0.042969 0.35938-0.125 0.070312-0.074219 0.10938-0.23047 0.10938-0.46875zm0-1.1719h0.96875v0.78125h-0.96875z"/>
  </symbol>
  <symbol id="j" overflow="visible">
   <path d="m2.875-2.8906v0.76562c-0.125-0.082031-0.25781-0.14453-0.39062-0.1875-0.13672-0.039062-0.27344-0.0625-0.40625-0.0625-0.27344 0-0.48047 0.078125-0.625 0.23438-0.14844 0.15625-0.21875 0.37109-0.21875 0.64062 0 0.28125 0.070313 0.5 0.21875 0.65625 0.14453 0.15625 0.35156 0.23438 0.625 0.23438 0.14453 0 0.28516-0.019531 0.42188-0.0625 0.13281-0.039063 0.25781-0.10938 0.375-0.20312v0.78125c-0.14844 0.0625-0.29688 0.10156-0.45312 0.125-0.15625 0.03125-0.3125 0.046875-0.46875 0.046875-0.54297 0-0.96484-0.13281-1.2656-0.40625-0.30469-0.28125-0.45312-0.67188-0.45312-1.1719 0-0.48828 0.14844-0.86719 0.45312-1.1406 0.30078-0.28125 0.72266-0.42188 1.2656-0.42188 0.15625 0 0.3125 0.015625 0.46875 0.046875 0.15625 0.023437 0.30469 0.0625 0.45312 0.125z"/>
  </symbol>
 </defs>
 <g>
  <path d="m382.2 400.34h-143.95c-0.86328 0-1.7188-0.34766-2.3281-0.96094-0.60156-0.61328-0.95312-1.4648-0.95312-2.3203v-82.93c0-9.2734 1.6836-18.352 5.0195-26.984 0.49219-1.2578 1.7188-2.0898 3.0625-2.0898 0.40625 0 0.79688 0.066407 1.1797 0.21875 1.2695 0.49219 2.0898 1.6836 2.1016 3.0391 0 0.40625-0.078125 0.80859-0.21875 1.2031-3.0391 7.8633-4.582 16.145-4.582 24.609v79.645h137.39v-79.641c0-18.266-7.1641-35.504-20.18-48.52-13.016-13.004-30.242-20.168-48.508-20.18-13.793 0.011719-27.102 4.125-38.523 11.898-0.54688 0.37109-1.1914 0.57031-1.8477 0.57031-1.082 0-2.1016-0.53516-2.7109-1.4336-0.49219-0.73438-0.67969-1.5977-0.51563-2.4609 0.16406-0.86328 0.65625-1.6094 1.3789-2.1016 12.5-8.5312 27.102-13.039 42.219-13.039 10.117 0.011719 19.949 2 29.227 5.9375 8.957 3.8047 17.008 9.2422 23.93 16.164 6.9219 6.9219 12.359 14.973 16.156 23.93 3.9375 9.2734 5.9375 19.109 5.9375 29.227v82.926c0 0.875-0.33984 1.6953-0.96094 2.3203-0.61328 0.62109-1.4453 0.97266-2.3203 0.97266zm-128.31-127.62c-0.74219 0-1.4531-0.24219-2.0352-0.71094-1.4219-1.125-1.6523-3.1953-0.52344-4.6055 1.082-1.3789 3.2266-1.6172 4.6055-0.52344 1.4219 1.125 1.6523 3.1953 0.52344 4.6055-0.62109 0.78516-1.5625 1.2344-2.5703 1.2344z"/>
  <path d="m310.22 471.04c-8.5742 0-16.91-1.6953-24.762-5.0312-7.5781-3.2266-14.406-7.832-20.266-13.703-5.8516-5.8633-10.457-12.688-13.684-20.266-3.3359-7.8633-5.0195-16.199-5.0312-24.773v-10.203c0-0.86328 0.35156-1.7148 0.96094-2.3281 0.61328-0.61328 1.4531-0.95312 2.3203-0.95312h120.94c0.86328 0 1.707 0.35156 2.3203 0.96094 0.61328 0.60156 0.96094 1.4453 0.96094 2.3203v10.203c0 8.5742-1.6953 16.91-5.0312 24.773-3.2266 7.5781-7.832 14.406-13.684 20.266-5.8633 5.8711-12.688 10.477-20.266 13.703-7.8672 3.3359-16.191 5.0312-24.777 5.0312zm-57.18-70.711v6.9336c0 15.215 5.9727 29.562 16.801 40.402 10.84 10.84 25.18 16.812 40.383 16.812 15.215 0 29.555-5.9727 40.391-16.812 10.828-10.84 16.801-25.188 16.801-40.402v-6.9336z"/>
  <path d="m190.34 419.61c-0.96094 0-1.8711-0.41406-2.4922-1.1484-0.57031-0.66797-0.84375-1.5078-0.77734-2.3828 0.066406-0.875 0.46875-1.6719 1.1367-2.2422l22.52-19.27c0.58984-0.51562 1.3438-0.78906 2.1328-0.78906h33.391c1.8164 0 3.2812 1.4648 3.2812 3.2812 0 1.8047-1.4648 3.2695-3.2812 3.2695h-32.18l-21.602 18.496c-0.58594 0.5-1.3398 0.78516-2.1289 0.78516z"/>
  <path d="m429.27 419.61c-0.77734 0-1.543-0.28516-2.1328-0.79688l-21.57-18.484-32.211 0.011719c-1.8164 0-3.2812-1.4766-3.2812-3.2812 0-1.8164 1.4648-3.2812 3.2812-3.2812h33.426c0.78906 0 1.543 0.27344 2.1445 0.78906l22.488 19.27c1.3672 1.1797 1.5312 3.2578 0.35156 4.625-0.625 0.73438-1.5312 1.1484-2.4961 1.1484z"/>
  <path d="m212.87 309.07c-0.77734 0-1.543-0.27344-2.1328-0.78906l-22.52-19.27c-1.3789-1.1797-1.5312-3.25-0.35938-4.625 1.1367-1.3242 3.3047-1.4883 4.625-0.35938l21.59 18.484 24.652-0.023438c1.8047 0 3.2812 1.4648 3.2812 3.2695 0 1.8047-1.4648 3.2812-3.2695 3.2812z"/>
  <path d="m406.79 309.07-25.07-0.03125c-1.8047 0-3.2695-1.4648-3.2695-3.2812 0-1.8047 1.4648-3.2812 3.2812-3.2812l23.844 0.03125 21.57-18.484h0.011719c1.3242-1.125 3.4883-0.96094 4.6172 0.35937 0.57031 0.66797 0.84375 1.5078 0.77734 2.3828-0.066406 0.875-0.46875 1.6719-1.125 2.2422l-22.488 19.27c-0.60938 0.51953-1.3633 0.79297-2.1484 0.79297z"/>
  <path d="m413.22 351.63h-31.02c-1.8047 0-3.2812-1.4648-3.2812-3.2812 0-1.8047 1.4766-3.2695 3.2812-3.2695h31.02c1.8047 0 3.2812 1.4648 3.2812 3.2695 0 1.8164-1.4766 3.2812-3.2812 3.2812zm-174.97 0h-31.02c-1.8047 0-3.2812-1.4648-3.2812-3.2812 0-1.8047 1.4766-3.2695 3.2812-3.2695h31.02c1.8047 0 3.2695 1.4648 3.2695 3.2695 0.003907 1.8164-1.4648 3.2812-3.2695 3.2812z"/>
  <path d="m289.49 437.76c3.0547 0 5.5352-2.4805 5.5352-5.5352 0-3.0195-2.4805-5.5-5.5352-5.5-3.0234 0-5.5039 2.4805-5.5039 5.5 0 3.0547 2.4805 5.5352 5.5039 5.5352" fill-rule="evenodd"/>
  <path d="m330.96 437.76c3.0234 0 5.5039-2.4805 5.5039-5.5352 0-3.0195-2.4805-5.5-5.5039-5.5-3.0547 0-5.5352 2.4805-5.5352 5.5 0 3.0547 2.4805 5.5352 5.5352 5.5352" fill-rule="evenodd"/>
  <path d="m297.53 500.2h-0.042969c-0.875-0.023437-1.6953-0.37109-2.3086-0.99609-0.61328-0.63281-0.94141-1.4531-0.92969-2.3398l0.44922-30.812c0.023437-1.7812 1.5-3.2383 3.2812-3.2383h0.042969c0.875 0.011719 1.6953 0.35938 2.3086 0.99609 0.61328 0.625 0.94141 1.4531 0.92969 2.3281l-0.44922 30.824c-0.019531 1.7852-1.4961 3.2383-3.2812 3.2383z"/>
  <path d="m322.69 500.2h-0.042969c-0.875-0.023437-1.6953-0.37109-2.3086-0.99609-0.60156-0.63281-0.94141-1.4531-0.91797-2.3398l0.4375-30.812c0.03125-1.7812 1.5-3.2383 3.2812-3.2383h0.054687c0.875 0.011719 1.6836 0.35938 2.2969 0.99609 0.61328 0.625 0.94141 1.4531 0.92969 2.3281l-0.44922 30.824c-0.019531 1.7852-1.4844 3.2383-3.2812 3.2383z"/>
  <path d="m310.23 400.34c-1.8164 0-3.2812-1.4766-3.2812-3.2812v-154.9c0-1.8164 1.4648-3.293 3.2812-3.293 1.8047 0 3.2695 1.4766 3.2695 3.293v154.9c0 1.8047-1.4648 3.2812-3.2695 3.2812z"/>
  <path d="m309.82 246.54c-1.8164 0-3.2812-1.4648-3.2812-3.2812v-112.75c0-1.8047 1.4648-3.2812 3.2812-3.2812 1.8047 0 3.2812 1.4766 3.2812 3.2812v112.75c0 1.8164-1.4766 3.2812-3.2812 3.2812z"/>
  <path d="m211.37 238.46c-6.5195 0-12.645-2.5391-17.258-7.1523-4.6055-4.6172-7.1406-10.75-7.1406-17.27 0-13.477 10.949-24.434 24.402-24.434 13.477 0 24.434 10.969 24.434 24.434-0.003907 13.461-10.961 24.422-24.438 24.422zm0-42.297c-9.8125 0.023438-17.816 8.0391-17.84 17.871 0.023437 9.832 8.0273 17.852 17.84 17.871 9.8438-0.023438 17.859-8.0391 17.871-17.871-0.011719-9.832-8.0273-17.848-17.871-17.871z"/>
  <path d="m460.13 397.34c-5.5352-0.011719-10.738-2.1641-14.633-6.0703-3.9023-3.9023-6.0703-9.0977-6.0703-14.633 0-11.418 9.2852-20.715 20.703-20.715 11.41 0.011719 20.707 9.2969 20.715 20.715-0.007812 11.418-9.2969 20.703-20.715 20.703zm0-34.855c-7.7891 0.011719-14.133 6.3633-14.141 14.152 0 7.7969 6.3438 14.145 14.141 14.145 7.7891-0.011719 14.133-6.3555 14.152-14.145-0.019531-7.7891-6.3633-14.141-14.152-14.152z"/>
  <path d="m400.93 262.51c-8.2266 0-15.957-3.2031-21.777-9.0117-5.8086-5.8086-9.0117-13.531-9.0117-21.754 0-8.2148 3.2031-15.938 9.0117-21.742 5.8164-5.8086 13.551-9.0117 21.777-9.0117 8.2148 0 15.945 3.2031 21.754 9.0117s9 13.531 9.0117 21.742c-0.011719 8.2266-3.207 15.945-9.0117 21.754-5.8047 5.8047-13.539 9.0117-21.754 9.0117zm0-54.961c-13.332 0.023438-24.203 10.883-24.227 24.195 0.023438 13.32 10.895 24.184 24.227 24.203 13.324-0.023438 24.184-10.883 24.207-24.203-0.023437-13.312-10.883-24.176-24.207-24.195z"/>
  <path d="m261.88 368.27c-1.8047 0-3.2812-1.4648-3.2812-3.2812v-52.609c0-1.8047 1.4766-3.2812 3.2812-3.2812 1.8164 0 3.2812 1.4766 3.2812 3.2812v52.609c0 1.8164-1.4648 3.2812-3.2812 3.2812z"/>
  <path d="m309.82 133.79c-0.57812 0-1.1484-0.15234-1.6406-0.4375l-44.223-25.508c-1.0078-0.58984-1.6406-1.6719-1.6406-2.8438v-51.047c0-1.1719 0.63281-2.2656 1.6406-2.8438l44.219-25.508c0.99609-0.57812 2.2852-0.57812 3.2812 0l44.211 25.508c1.0078 0.57812 1.6406 1.6719 1.6406 2.8438v51.047c0 1.1719-0.63281 2.2539-1.6406 2.8438l-44.211 25.508c-0.5 0.28125-1.0703 0.4375-1.6367 0.4375zm-40.941-30.68 40.938 23.613 40.93-23.613v-47.262l-40.93-23.613-40.938 23.613z"/>
  <path d="m436.24 534.84h-285.37c-1.8047 0-3.2812-1.4766-3.2812-3.2812 0-1.8164 1.4766-3.2812 3.2812-3.2812h285.37c1.8047 0 3.2812 1.4648 3.2812 3.2812 0 1.8047-1.4766 3.2812-3.2812 3.2812z"/>
  <path d="m515.47 515.02h-176.9c-1.8164 0-3.2812-1.4766-3.2812-3.2812 0-1.8164 1.4648-3.2812 3.2812-3.2812h176.9c1.8047 0 3.2812 1.4648 3.2812 3.2812 0 1.8047-1.4766 3.2812-3.2812 3.2812z"/>
  <path d="m560.35 515.02h-24.676c-1.8164 0-3.2812-1.4766-3.2812-3.2812 0-1.8164 1.4648-3.2812 3.2812-3.2812h24.676c1.8164 0 3.2812 1.4648 3.2812 3.2812 0 1.8047-1.4648 3.2812-3.2812 3.2812z"/>
  <path d="m262.2 515.62h-122.55c-1.8164 0-3.2812-1.4648-3.2812-3.2812 0-1.8047 1.4648-3.2812 3.2812-3.2812h122.54c1.8164 0 3.2812 1.4766 3.2812 3.2812 0.003906 1.8164-1.4648 3.2812-3.2773 3.2812z"/>
  <use x="70" y="576.40625" xlink:href="#t"/>
  <use x="74.011719" y="576.40625" xlink:href="#c"/>
  <use x="76.710938" y="576.40625" xlink:href="#b"/>
  <use x="80.417969" y="576.40625" xlink:href="#d"/>
  <use x="84.109375" y="576.40625" xlink:href="#a"/>
  <use x="86.722656" y="576.40625" xlink:href="#b"/>
  <use x="90.433594" y="576.40625" xlink:href="#i"/>
  <use x="96.25" y="576.40625" xlink:href="#h"/>
  <use x="100.167969" y="576.40625" xlink:href="#g"/>
  <use x="105.636719" y="576.40625" xlink:href="#f"/>
  <use x="109.371094" y="576.40625" xlink:href="#s"/>
  <use x="111.246094" y="576.40625" xlink:href="#d"/>
  <use x="114.9375" y="576.40625" xlink:href="#a"/>
  <use x="117.550781" y="576.40625" xlink:href="#d"/>
  <use x="121.238281" y="576.40625" xlink:href="#c"/>
  <use x="123.9375" y="576.40625" xlink:href="#a"/>
  <use x="70" y="581.875" xlink:href="#r"/>
  <use x="72.378906" y="581.875" xlink:href="#c"/>
  <use x="75.078125" y="581.875" xlink:href="#e"/>
  <use x="78.832031" y="581.875" xlink:href="#q"/>
  <use x="86.4375" y="581.875" xlink:href="#a"/>
  <use x="89.050781" y="581.875" xlink:href="#p"/>
  <use x="92.941406" y="581.875" xlink:href="#b"/>
  <use x="98.554688" y="581.875" xlink:href="#o"/>
  <use x="103.132812" y="581.875" xlink:href="#e"/>
  <use x="106.890625" y="581.875" xlink:href="#n"/>
  <use x="110.785156" y="581.875" xlink:href="#m"/>
  <use x="116.582031" y="581.875" xlink:href="#l"/>
  <use x="120.589844" y="581.875" xlink:href="#c"/>
  <use x="123.285156" y="581.875" xlink:href="#e"/>
  <use x="127.042969" y="581.875" xlink:href="#k"/>
  <use x="128.917969" y="581.875" xlink:href="#b"/>
  <use x="132.625" y="581.875" xlink:href="#j"/>
  <use x="135.867188" y="581.875" xlink:href="#a"/>
 </g>
</svg>